<svg width="30" height="30" viewBox="0 0 30 30" fill="none" xmlns="http://www.w3.org/2000/svg">
<path fill-rule="evenodd" clip-rule="evenodd" d="M23.564 8.06405C23.6709 7.95728 23.7558 7.83051 23.8137 7.69096C23.8716 7.55142 23.9014 7.40183 23.9015 7.25075C23.9016 7.09967 23.8719 6.95005 23.8142 6.81044C23.7565 6.67082 23.6718 6.54394 23.565 6.43705C23.4583 6.33015 23.3315 6.24533 23.192 6.18743C23.0524 6.12953 22.9028 6.09968 22.7518 6.09958C22.6007 6.09949 22.4511 6.12916 22.3114 6.18689C22.1718 6.24462 22.0449 6.32928 21.938 6.43605L15 13.374L8.06405 6.43605C7.84816 6.22016 7.55536 6.09888 7.25005 6.09888C6.94474 6.09888 6.65193 6.22016 6.43605 6.43605C6.22016 6.65193 6.09888 6.94474 6.09888 7.25005C6.09888 7.55536 6.22016 7.84816 6.43605 8.06405L13.374 15L6.43605 21.936C6.32915 22.0429 6.24436 22.1698 6.1865 22.3095C6.12865 22.4492 6.09888 22.5989 6.09888 22.75C6.09888 22.9012 6.12865 23.0509 6.1865 23.1906C6.24436 23.3302 6.32915 23.4571 6.43605 23.564C6.65193 23.7799 6.94474 23.9012 7.25005 23.9012C7.40122 23.9012 7.55091 23.8714 7.69058 23.8136C7.83025 23.7557 7.95715 23.6709 8.06405 23.564L15 16.626L21.938 23.564C22.1539 23.7797 22.4466 23.9007 22.7518 23.9005C23.0569 23.9003 23.3494 23.7789 23.565 23.563C23.7807 23.3472 23.9017 23.0545 23.9015 22.7493C23.9013 22.4442 23.7799 22.1517 23.564 21.936L16.626 15L23.564 8.06405Z" fill="black"/>
</svg>
